# AST/ASF file generated using VICON BodyLanguage
# -----------------------------------------------
:version 1.10
:name VICON
:units
  mass 1.0
  length 0.45
  angle deg
:documentation
   .ast/.asf automatically generated from VICON data using
   VICON BodyBuilder and BodyLanguage model FoxedUp or BRILLIANT.MOD
:root
   order TX TY TZ RX RY RZ
   axis XYZ
   position 0 0 0  
   orientation 0 0 0 
:bonedata
  begin
     id 1 
     name lhipjoint
     direction 0.661853 -0.702389 0.261917 
     length 2.64193 
     axis 0 0 0  XYZ
  end
  begin
     id 2 
     name lfemur
     direction 0.34202 -0.939693 0  
     length 7.01722  
     axis 0 0 20  XYZ
    dof rx ry rz
    limits (-160.0 20.0)
           (-70.0 70.0)
           (-60.0 70.0)
  end
  begin
     id 3 
     name ltibia
     direction 0.34202 -0.939693 0   
     length 8.25008   
     axis 0 0 20   XYZ
    dof rx
    limits (-10.0 170.0)
  end
  begin
     id 4 
     name lfoot
     direction 0.0709916 -0.195048 0.978221   
     length 2.31941   
     axis -90 7.62852e-016 20   XYZ
    dof rx rz
    limits (-45.0 90.0)
           (-70.0 20.0)
  end
  begin
     id 5 
     name ltoes
     direction 1.53586e-011 -4.22017e-011 1   
     length 1.16486   
     axis -90 7.62852e-016 20   XYZ
    dof rx
    limits (-90.0 20.0)
  end
  begin
     id 6 
     name rhipjoint
     direction -0.638185 -0.721362 0.268992   
     length 2.57244  
     axis 0 0 0  XYZ 
  end
  begin
     id 7 
     name rfemur
     direction -0.34202 -0.939693 0   
     length 7.07017   
     axis 0 0 -20   XYZ
    dof rx ry rz
    limits (-160.0 20.0)
           (-70.0 70.0)
           (-70.0 60.0)
  end
  begin
     id 8 
     name rtibia
     direction -0.34202 -0.939693 0   
     length 8.20386   
     axis 0 0 -20   XYZ
    dof rx
    limits (-10.0 170.0)
 end
 begin
     id 9 
     name rfoot
     direction -0.0822429 -0.225961 0.970658   
     length 2.32215  
     axis -90 -7.62852e-016 -20   XYZ
    dof rx rz
    limits (-45.0 90.0)
           (-20.0 70.0)
  end
  begin
     id 10 
     name rtoes
     direction -1.53597e-011 -4.21689e-011 1   
     length 1.16333   
     axis -90 -7.62852e-016 -20   XYZ
    dof rx
    limits (-90.0 20.0)
  end
  begin
     id 11 
     name lowerback
     direction -0.0131557 0.998589 -0.0514484   
     length 2.14993   
     axis 0 0 0   XYZ
    dof rx ry rz
    limits (-20.0 45.0)
           (-30.0 30.0)
           (-30.0 30.0)
  end
  begin
     id 12 
     name upperback
     direction -0.000776481 0.999993 0.00352685   
     length 2.15301   
     axis 0 0 0   XYZ
    dof rx ry rz
    limits (-20.0 45.0)
           (-30.0 30.0)
           (-30.0 30.0)
  end
  begin
     id 13 
     name thorax
     direction 0.00438186 0.999609 0.0276143   
     length 2.15424   
     axis 0 0 0   XYZ
    dof rx ry rz
    limits (-20.0 45.0)
           (-30.0 30.0)
           (-30.0 30.0)
  end
  begin
     id 14 
     name lowerneck
     direction -0.0488006 0.998094 0.0377807   
     length 1.90481   
     axis 0 0 0   XYZ
    dof rx ry rz
    limits (-20.0 45.0)
           (-30.0 30.0)
           (-30.0 30.0)
  end
  begin
     id 15 
     name upperneck
     direction 0.0443769 0.990702 -0.12861   
     length 1.91305   
     axis 0 0 0   XYZ
    dof rx ry rz
    limits (-20.0 45.0)
           (-30.0 30.0)
           (-30.0 30.0)
  end
  begin
     id 16
     name head
     direction 0.0165599 0.998647 -0.0492982  
     length 1.92369  
     axis 0 0 0   XYZ
    dof rx ry rz
    limits (-20.0 45.0)
           (-30.0 30.0)
           (-30.0 30.0)
  end
  begin
     id 17 
     name lclavicle
     direction 0.911936 0.410197 -0.0105506  
     length 3.52622  
     axis 0 0 0   XYZ
    dof ry rz
    limits (-20.0 10.0)
           (0.0 20.0)
  end
  begin
     id 18 
     name lhumerus
     direction 1 -4.48974e-011 -2.48591e-028   
     length 5.47651   
     axis 180 -30 -90   XYZ
    dof rx ry rz
    limits (-60.0 90.0)
           (-90.0 90.0)
           (-90.0 90.0)
  end
  begin
     id 19
     name lradius
     direction 1 -4.48938e-011 -4.40099e-027   
     length 3.09058   
     axis 180 -30 -90   XYZ
    dof rx
    limits (-10.0 170.0)
  end
  begin
     id 20
     name lwrist
     direction 1 -4.49042e-011 -2.99852e-027   
     length 1.54529   
     axis 1.95339e-015 90 90   XYZ
    dof ry
    limits (-180.0 0.0)
 end
  begin
     id 21 
     name lhand
     direction 1 -4.48815e-011 -5.98193e-027   
     length 0.771611   
     axis 3.82337e-015 90 90   XYZ
    dof rx rz
    limits (-90.0 90.0)
           (-45.0 45.0)
  end
  begin
     id 22 
     name lfingers
     direction 1 -4.49034e-011 -1.1993e-026   
     length 0.622093   
     axis 7.64668e-015 90 90   XYZ
    dof rx
    limits (0.0 90.0)
  end
  begin
     id 23
     name lthumb
     direction 0.707107 -6.34867e-011 0.707107   
     length 0.893204   
     axis -90 45 -1.62303e-014   XYZ
    dof rx rz
    limits (-45.0 45.0)
           (-45.0 45.0)
  end
  begin
     id 24 
     name rclavicle
     direction -0.93442 0.355634 -0.0195692   
     length 3.62463  
     axis 0 0 0   XYZ 
    dof ry rz
    limits (-10.0 20.0)
           (-20.0 0.0)
  end
  begin
     id 25 
     name rhumerus
     direction -1 -4.48957e-011 -1.19147e-027  
     length 5.14182   
     axis 180 30 90   XYZ
    dof rx ry rz
    limits (-90.0 60.0)
           (-90.0 90.0)
           (-90.0 90.0)
  end
  begin
     id 26 
     name rradius
     direction -1 -4.48952e-011 -3.81062e-027   
     length 3.35565   
     axis 180 30 90   XYZ
    dof rx
    limits (-10.0 170.0)
  end
  begin
     id 27 
     name rwrist
     direction -1 -4.48973e-011 -2.99621e-027   
     length 1.67782   
     axis 1.95339e-015 -90 -90   XYZ
    dof ry
    limits (-180.0 0.0)
  end
  begin
     id 28
     name rhand
     direction -1 -4.48895e-011 -5.98727e-027   
     length 0.801042   
     axis 3.82337e-015 -90 -90   XYZ
    dof rx rz
    limits (-90.0 90.0)
           (-45.0 45.0)
  end
  begin
     id 29
     name rfingers
     direction -1 -4.49065e-011 -1.19972e-026   
     length 0.645821   
     axis 7.64668e-015 -90 -90   XYZ
    dof rx
    limits (0.0 90.0)
  end
  begin
     id 30
     name rthumb
     direction -0.707107 -6.34957e-011 0.707107   
     length 0.927273   
     axis -90 -45 1.62303e-014   XYZ
    dof rx rz
    limits (-45.0 45.0)
           (-45.0 45.0)
  end
:hierarchy
  begin
    root lhipjoint rhipjoint lowerback
    lhipjoint lfemur
    lfemur ltibia
    ltibia lfoot
    lfoot ltoes
    rhipjoint rfemur
    rfemur rtibia
    rtibia rfoot
    rfoot rtoes
    lowerback upperback
    upperback thorax
    thorax lowerneck lclavicle rclavicle
    lowerneck upperneck
    upperneck head
    lclavicle lhumerus
    lhumerus lradius
    lradius lwrist
    lwrist lhand lthumb
    lhand lfingers
    rclavicle rhumerus
    rhumerus rradius
    rradius rwrist
    rwrist rhand rthumb
    rhand rfingers
  end

#!OML:ASF E:\Style4\Style4.ASF
:FULLY-SPECIFIED
:DEGREES
286
root 0.0996795 16.7837 -0.823243 7.75647 -1.03272 2.19737
lowerback 11.8687 1.3799 -1.47996
upperback -0.470362 1.62783 0.0227169
thorax -7.20975 0.84873 0.567605
lowerneck 4.74926 -3.58357 -5.51702
upperneck -1.08183 -5.01827 3.34625
head -0.917058 -2.53296 2.10144
rclavicle 3.27995e-015 1.98785e-015
rhumerus -45.8567 25.1033 -93.0939
rradius 57.137
rwrist -34.3416
rhand -13.644 23.4436
rfingers 7.12502
rthumb 12.4724 -6.16418
lclavicle 3.27995e-015 1.98785e-015
lhumerus -44.5924 -29.3822 97.6207
lradius 57.416
lwrist 21.4406
lhand -9.7723 24.1103
lfingers 7.12502
lthumb 16.2029 53.4532
rfemur -32.0595 3.64349 15.5918
rtibia 54.9011
rfoot -28.214 -15.4172
rtoes -14.3671
lfemur -31.3119 -1.12109 -21.548
ltibia 54.0374
lfoot -28.7699 8.63048
ltoes -18.3035
287
root 0.0997123 16.7582 -0.822537 7.71165 -1.06463 2.19531
lowerback 11.9333 1.39271 -1.54326
upperback -0.431115 1.63488 0.0224011
thorax -7.20647 0.8542 0.60078
lowerneck 4.91683 -3.58932 -5.41473
upperneck -1.21209 -5.02952 3.24871
head -0.991469 -2.53732 2.05922
rclavicle -2.5842e-015 -7.55382e-015
rhumerus -45.8982 25.2676 -93.555
rradius 56.9735
rwrist -34.1259
rhand -13.8332 23.501
rfingers 7.12502
rthumb 12.29 -6.11783
lclavicle -2.5842e-015 -7.55382e-015
lhumerus -44.6933 -29.431 97.9841
lradius 57.45
lwrist 21.3581
lhand -9.80166 24.2953
lfingers 7.12502
lthumb 16.1746 53.6405
rfemur -32.279 3.6625 15.5983
rtibia 55.3872
rfoot -28.4162 -15.4391
rtoes -14.5152
lfemur -31.5276 -1.14954 -21.5623
ltibia 54.4903
lfoot -29.0236 9.01994
ltoes -19.6645
288
root 0.0997349 16.7356 -0.822219 7.63712 -1.06939 2.32361
lowerback 12.0193 1.40647 -1.72134
upperback -0.364315 1.62449 -0.00610845
thorax -7.18802 0.854563 0.671942
lowerneck 4.9673 -3.58897 -5.39675
upperneck -1.21706 -5.03097 3.22502
head -1.00268 -2.53797 2.04992
rclavicle 2.5842e-015 9.93923e-015
rhumerus -45.8823 25.4353 -93.9675
rradius 56.8089
rwrist -33.9944
rhand -13.9095 23.4414
rfingers 7.12502
rthumb 12.2164 -6.18186
lclavicle 2.5842e-015 9.93923e-015
lhumerus -44.7913 -29.4565 98.3411
lradius 57.5311
lwrist 21.2846
lhand -9.92292 24.4634
lfingers 7.12502
lthumb 16.0579 53.818
rfemur -32.4469 3.58396 15.4696
rtibia 55.8243
rfoot -28.5294 -15.4911
rtoes -14.8488
lfemur -31.6386 -1.20985 -21.7174
ltibia 54.8684
lfoot -29.2098 9.10796
ltoes -19.6486
289
root 0.0994364 16.7165 -0.820728 7.62706 -1.05568 2.40049
lowerback 12.0422 1.41833 -1.81662
upperback -0.335072 1.62414 -0.0372699
thorax -7.17164 0.856968 0.6927
lowerneck 5.01938 -3.59906 -5.3874
upperneck -1.14698 -5.0467 3.237
head -0.988662 -2.54701 2.05244
rclavicle 8.94531e-016 6.36111e-015
rhumerus -45.9519 25.5401 -94.4103
rradius 56.6889
rwrist -33.9658
rhand -13.7455 23.4076
rfingers 7.12502
rthumb 12.3745 -6.20617
lclavicle 8.94531e-016 6.36111e-015
lhumerus -44.912 -29.5058 98.6784
lradius 57.5766
lwrist 21.2022
lhand -9.91768 24.6638
lfingers 7.12502
lthumb 16.0629 54.018
rfemur -32.6151 3.54303 15.4061
rtibia 56.192
rfoot -28.5894 -15.6364
rtoes -15.2185
lfemur -31.7853 -1.25316 -21.8034
ltibia 55.1927
lfoot -29.2672 9.05316
ltoes -19.2698
290
root 0.0994778 16.6977 -0.822477 7.6351 -1.08804 2.36237
lowerback 12.0599 1.43749 -1.831
upperback -0.307094 1.64814 -0.0262922
thorax -7.15325 0.869092 0.708054
lowerneck 5.09159 -3.61901 -5.35899
upperneck -1.15648 -5.07579 3.20377
head -1.00425 -2.56144 2.03936
rclavicle -3.97569e-015 -2.38542e-015
rhumerus -46.0256 25.7126 -94.8517
rradius 56.5674
rwrist -33.9364
rhand -13.5178 23.2468
rfingers 7.12502
rthumb 12.594 -6.35355
lclavicle -3.97569e-015 -2.38542e-015
lhumerus -45.002 -29.5144 99.0023
lradius 57.5607
lwrist 21.1653
lhand -9.87474 24.6646
lfingers 7.12502
lthumb 16.1043 54.0155
rfemur -32.8044 3.59546 15.4569
rtibia 56.5074
rfoot -28.6561 -15.7055
rtoes -15.3394
lfemur -31.9597 -1.22596 -21.7634
ltibia 55.4841
lfoot -29.3414 9.0103
ltoes -19.0682
291
root 0.100416 16.6827 -0.825885 7.62862 -1.10732 2.32497
lowerback 12.144 1.45411 -1.82535
upperback -0.282963 1.6694 -0.0249166
thorax -7.17555 0.879117 0.700861
lowerneck 5.13213 -3.64422 -5.35298
upperneck -1.19337 -5.11038 3.21862
head -1.02125 -2.5789 2.04566
rclavicle 7.35503e-015 -3.18055e-015
rhumerus -46.0241 25.8879 -95.2839
rradius 56.3413
rwrist -33.8395
rhand -13.3876 23.1441
rfingers 7.12502
rthumb 12.7196 -6.44846
lclavicle 7.35503e-015 -3.18055e-015
lhumerus -45.0445 -29.582 99.3122
lradius 57.5158
lwrist 21.1828
lhand -9.86986 24.5638
lfingers 7.12502
lthumb 16.109 53.9143
rfemur -32.9595 3.65614 15.5009
rtibia 56.78
rfoot -28.7603 -15.7573
rtoes -15.1889
lfemur -32.1132 -1.2372 -21.7296
ltibia 55.7501
lfoot -29.4102 9.13027
ltoes -19.547
292
root 0.103484 16.6707 -0.827365 7.63495 -1.06648 2.32279
lowerback 12.2222 1.43395 -1.80325
upperback -0.264534 1.64322 -0.037775
thorax -7.19833 0.865215 0.678091
lowerneck 5.12368 -3.64648 -5.40458
upperneck -1.20026 -5.11449 3.28954
head -1.01906 -2.58181 2.0779
rclavicle 2.08724e-015 -4.37326e-015
rhumerus -46.0514 26.0929 -95.7366
rradius 56.1377
rwrist -33.6853
rhand -13.3359 23.1142
rfingers 7.12502
rthumb 12.7694 -6.47535
lclavicle 2.08724e-015 -4.37326e-015
lhumerus -45.1092 -29.7057 99.6184
lradius 57.539
lwrist 21.2128
lhand -9.87809 24.5086
lfingers 7.12502
lthumb 16.101 53.8597
rfemur -33.0881 3.62581 15.5006
rtibia 57.0223
rfoot -28.8884 -15.777
rtoes -15.1467
lfemur -32.2471 -1.28671 -21.7389
ltibia 55.9881
lfoot -29.4754 9.29196
ltoes -20.1074
293
root 0.107466 16.6581 -0.82849 7.66191 -1.07371 2.37221
lowerback 12.226 1.43274 -1.83639
upperback -0.227882 1.63494 -0.06612
thorax -7.16119 0.86139 0.668815
lowerneck 5.14943 -3.65238 -5.45404
upperneck -1.24799 -5.12458 3.36494
head -1.0355 -2.58764 2.11328
rclavicle 8.44835e-015 0
rhumerus -46.0743 26.2866 -96.1622
rradius 56.0222
rwrist -33.541
rhand -13.3458 23.2
rfingers 7.12502
rthumb 12.7599 -6.39006
lclavicle 8.44835e-015 0
lhumerus -45.2204 -29.8202 99.93
lradius 57.6505
lwrist 21.2441
lhand -10.0131 24.5911
lfingers 7.12502
lthumb 15.971 53.9527
rfemur -33.254 3.58458 15.4368
rtibia 57.244
rfoot -28.8596 -15.9107
rtoes -15.7034
lfemur -32.3881 -1.3162 -21.8135
ltibia 56.1953
lfoot -29.5693 9.33447
ltoes -20.0147
294
root 0.11149 16.6451 -0.829996 7.74817 -1.12832 2.40151
lowerback 12.1537 1.45002 -1.87025
upperback -0.206642 1.6536 -0.0832904
thorax -7.09867 0.870968 0.668351
lowerneck 5.17632 -3.65554 -5.46525
upperneck -1.27525 -5.1309 3.3519
head -1.04863 -2.59041 2.11253
rclavicle -1.74931e-014 3.18055e-015
rhumerus -46.0732 26.4949 -96.5265
rradius 55.8899
rwrist -33.4769
rhand -13.2966 23.3989
rfingers 7.12502
rthumb 12.8072 -6.18827
lclavicle -1.74931e-014 3.18055e-015
lhumerus -45.3984 -29.9324 100.257
lradius 57.822
lwrist 21.1717
lhand -10.2289 24.7098
lfingers 7.12502
lthumb 15.7632 54.0879
rfemur -33.4842 3.59532 15.3799
rtibia 57.4283
rfoot -28.8438 -15.9803
rtoes -16.1448
lfemur -32.5874 -1.27688 -21.8669
ltibia 56.369
lfoot -29.6235 9.27638
ltoes -19.7222
295
root 0.114768 16.6384 -0.829551 7.79389 -1.18731 2.37224
lowerback 12.1563 1.47542 -1.82988
upperback -0.196316 1.69225 -0.0950816
thorax -7.08861 0.888001 0.626201
lowerneck 5.14676 -3.65794 -5.4604
upperneck -1.24146 -5.13316 3.3261
head -1.03327 -2.59122 2.10164
rclavicle -1.48095e-014 7.55382e-015
rhumerus -46.1105 26.6671 -96.8998
rradius 55.7612
rwrist -33.3376
rhand -13.2247 23.6008
rfingers 7.12502
rthumb 12.8766 -5.98193
lclavicle -1.48095e-014 7.55382e-015
lhumerus -45.5726 -30.0603 100.572
lradius 57.9475
lwrist 20.8937
lhand -10.7292 24.6362
lfingers 7.12502
lthumb 15.2814 54.0517
rfemur -33.6222 3.61809 15.3965
rtibia 57.5282
rfoot -28.7787 -16.04
rtoes -16.3327
lfemur -32.6922 -1.21988 -21.8533
ltibia 56.4835
lfoot -29.6369 9.23717
ltoes -19.6429
296
root 0.119943 16.6383 -0.819495 7.76774 -1.40187 2.36096
lowerback 12.1387 1.55936 -1.8192
upperback -0.159658 1.80396 -0.122391
thorax -7.04132 0.941068 0.572054
lowerneck 5.12582 -3.65827 -5.49093
upperneck -1.23074 -5.13365 3.36332
head -1.02466 -2.59192 2.11837
rclavicle -1.15295e-014 1.98785e-015
rhumerus -46.1989 26.7993 -97.2749
rradius 55.7393
rwrist -33.1403
rhand -13.172 23.5845
rfingers 7.12502
rthumb 12.9274 -5.99511
lclavicle -1.15295e-014 1.98785e-015
lhumerus -45.7496 -30.2725 100.903
lradius 58.0019
lwrist 20.4255
lhand -11.4793 24.5374
lfingers 7.12502
lthumb 14.5588 54.0065
rfemur -33.6316 3.78411 15.3631
rtibia 57.5513
rfoot -28.7349 -16.0578
rtoes -16.4117
lfemur -32.6213 -1.07162 -21.8887
ltibia 56.5344
lfoot -29.6914 9.24979
ltoes -19.4539
297
root 0.127696 16.642 -0.80325 7.65538 -1.73227 2.28897
lowerback 12.1248 1.66482 -1.78114
upperback -0.0844641 1.94989 -0.127106
thorax -6.9556 1.00992 0.520885
lowerneck 5.16982 -3.66165 -5.44719
upperneck -1.26518 -5.13862 3.30894
head -1.04527 -2.59363 2.09498
rclavicle -4.07509e-015 1.07344e-014
rhumerus -46.3373 27.0549 -97.7033
rradius 55.7176
rwrist -32.8746
rhand -13.4403 23.7883
rfingers 7.12502
rthumb 12.6687 -5.80745
lclavicle -4.07509e-015 1.07344e-014
lhumerus -45.9042 -30.4258 101.176
lradius 58.0611
lwrist 19.839
lhand -12.1933 24.3629
lfingers 7.12502
lthumb 13.8707 53.8804
rfemur -33.4832 4.07064 15.3748
rtibia 57.5278
rfoot -28.8104 -15.887
rtoes -15.9984
lfemur -32.377 -0.845104 -21.8812
ltibia 56.5248
lfoot -29.8667 9.38163
ltoes -19.6808
298
root 0.132504 16.6451 -0.795782 7.59975 -1.89061 2.18125
lowerback 12.1535 1.70541 -1.72512
upperback -0.0491701 2.01484 -0.0769061
thorax -6.93566 1.04022 0.530381
lowerneck 5.23738 -3.63277 -5.51111
upperneck -1.28479 -5.10758 3.30519
head -1.06349 -2.5779 2.10712
rclavicle 6.85807e-015 5.96354e-015
rhumerus -46.5186 27.3505 -98.1125
rradius 55.674
rwrist -32.4289
rhand -13.9447 24.2169
rfingers 7.12502
rthumb 12.1824 -5.40838
lclavicle 6.85807e-015 5.96354e-015
lhumerus -46.0191 -30.4575 101.402
lradius 58.1471
lwrist 19.163
lhand -12.6956 24.2586
lfingers 7.12502
lthumb 13.3866 53.8085
rfemur -33.3955 4.23571 15.4575
rtibia 57.5302
rfoot -28.9261 -15.6604
rtoes -15.4687
lfemur -32.2612 -0.721176 -21.7932
ltibia 56.5102
lfoot -29.9903 9.41922
ltoes -19.7982
299
root 0.134771 16.646 -0.795461 7.62222 -1.91479 2.21576
lowerback 12.1948 1.70484 -1.8025
upperback -0.0593147 2.0031 -0.0628014
thorax -6.97283 1.03757 0.589577
lowerneck 5.25314 -3.59995 -5.54273
upperneck -1.2588 -5.06748 3.28046
head -1.05974 -2.55757 2.10395
rclavicle -3.00165e-014 2.38542e-015
rhumerus -46.7109 27.5892 -98.5054
rradius 55.6729
rwrist -32.0192
rhand -14.2744 24.4758
rfingers 7.12502
rthumb 11.8645 -5.16806
lclavicle -3.00165e-014 2.38542e-015
lhumerus -46.1578 -30.4628 101.578
lradius 58.2799
lwrist 18.491
lhand -13.036 24.0048
lfingers 7.12502
lthumb 13.0585 53.576
rfemur -33.3937 4.23816 15.399
rtibia 57.578
rfoot -28.9251 -15.3367
rtoes -14.9486
lfemur -32.2851 -0.710836 -21.8425
ltibia 56.4861
lfoot -29.9506 9.39962
ltoes -19.4865
